<svg width="113" height="20" viewBox="0 0 113 20" fill="none" xmlns="http://www.w3.org/2000/svg">
<path d="M10.2727 0L12.5791 6.90983H20.0427L14.0045 11.1803L16.3109 18.0902L10.2727 13.8197L4.23457 18.0902L6.54094 11.1803L0.502783 6.90983H7.96636L10.2727 0Z" fill="#173641"/>
<path d="M33.386 0L35.6924 6.90983H43.156L37.1178 11.1803L39.4242 18.0902L33.386 13.8197L27.3479 18.0902L29.6542 11.1803L23.6161 6.90983H31.0796L33.386 0Z" fill="#173641"/>
<path d="M56.4993 0L58.8057 6.90983H66.2692L60.2311 11.1803L62.5374 18.0902L56.4993 13.8197L50.4611 18.0902L52.7675 11.1803L46.7293 6.90983H54.1929L56.4993 0Z" fill="#173641"/>
<path d="M79.6126 0L81.9189 6.90983H89.3825L83.3444 11.1803L85.6507 18.0902L79.6126 13.8197L73.5744 18.0902L75.8808 11.1803L69.8426 6.90983H77.3062L79.6126 0Z" fill="#173641"/>
<path d="M102.726 0L105.032 6.90983H112.496L106.458 11.1803L108.764 18.0902L102.726 13.8197L96.6877 18.0902L98.9941 11.1803L92.9559 6.90983H100.419L102.726 0Z" fill="#173641"/>
</svg>
