<svg width="36" height="37" viewBox="0 0 36 37" fill="none" xmlns="http://www.w3.org/2000/svg">
<path d="M21.5993 10.8892C20.3532 10.4798 19.1071 10.316 17.861 10.316C17.7779 10.316 17.6948 10.316 17.6948 10.316C17.6118 10.316 17.5287 10.316 17.5287 10.316C15.9503 10.316 14.3719 10.6436 12.8765 11.2167C12.8765 11.2167 12.8765 11.2167 12.7934 11.2167C12.7104 11.2167 12.7104 11.2167 12.6273 11.2167L11.7135 11.708C9.13818 13.0181 6.97824 15.229 5.73213 17.8492C4.81831 19.7325 4.31986 21.8614 4.31986 23.9904C4.31986 24.236 4.31986 24.3998 4.31986 24.6454V24.7273C4.31986 24.9729 4.31986 25.1367 4.40294 25.3824V25.4642C4.40294 25.628 4.48601 25.8736 4.48601 26.1193V26.2012C4.48601 26.4468 4.56909 26.6106 4.56909 26.8562V26.9381C4.65216 27.1838 4.65216 27.3475 4.73524 27.5932V27.6751C4.81831 27.8388 4.81831 28.0026 4.90138 28.1664C3.5722 27.1019 2.40916 25.7918 1.57841 24.3179C0.498446 22.2708 0 20.2238 0 18.0948C0 13.4275 2.5753 9.16967 6.64595 7.12262C8.30743 6.30379 10.1351 5.8125 11.9627 5.8125C13.8734 5.8125 15.618 6.22191 17.3625 7.12262C17.4456 7.2045 17.6118 7.28638 17.7779 7.36826C17.7779 7.36826 17.861 7.36826 17.861 7.45015H17.9441C18.0271 7.53203 18.1102 7.53203 18.1933 7.61391C18.1933 7.61391 18.2763 7.61391 18.2763 7.69579C18.3594 7.77767 18.4425 7.77767 18.5256 7.85956L18.6086 7.94144L18.6917 8.02332C18.7748 8.1052 18.8579 8.1052 18.9409 8.18709L19.1071 8.26897C19.1902 8.35085 19.2732 8.35085 19.3563 8.43273C19.4394 8.43273 19.4394 8.51461 19.5225 8.51461C19.6055 8.5965 19.6886 8.5965 19.6886 8.67838C19.7717 8.76026 19.7717 8.76026 19.8548 8.84214C19.9378 8.92403 20.0209 8.92403 20.0209 9.00591C20.104 9.08779 20.104 9.08779 20.1871 9.16967C20.2701 9.25155 20.2701 9.25155 20.3532 9.33344C20.4363 9.41532 20.4363 9.41532 20.5194 9.4972C20.6024 9.57908 20.6024 9.66097 20.6855 9.66097C20.7686 9.74285 20.7686 9.82473 20.8517 9.82473C20.9347 9.90661 20.9347 9.98849 21.0178 9.98849L21.1009 10.0704C21.184 10.1523 21.184 10.2341 21.267 10.316L21.3501 10.3979C21.5162 10.6436 21.5162 10.7254 21.5993 10.8892Z" fill="#173641"/>
<path d="M27.3308 31.1956C26.3339 32.5876 25.0047 33.8158 23.5094 34.6346C21.6818 35.6991 19.688 36.1904 17.6111 36.1904C13.042 36.1904 8.97141 33.5702 6.89455 29.3942C6.06381 27.6746 5.64844 25.8732 5.64844 23.9081C5.64844 21.9429 6.06381 20.1415 6.89455 18.4219C6.97763 18.2582 7.0607 18.1763 7.14377 18.0125C7.14377 18.0125 7.14377 17.9306 7.22685 17.9306V17.8488C7.30992 17.7669 7.30992 17.685 7.393 17.6031C7.393 17.6031 7.393 17.5212 7.47607 17.5212L7.55915 17.4394C7.64222 17.3575 7.64222 17.2756 7.72529 17.1937L7.80837 17.1118L7.89144 17.0299C7.97452 16.9481 7.97452 16.8662 8.05759 16.7843L8.14066 16.7024C8.22374 16.6205 8.22374 16.5386 8.30681 16.4568C8.30681 16.3749 8.38989 16.3749 8.47296 16.293C8.55604 16.2111 8.55604 16.1292 8.63911 16.0474C8.72218 15.9655 8.72218 15.9655 8.80526 15.8836C8.88833 15.8017 8.88833 15.7198 8.97141 15.7198C9.05448 15.6379 9.05448 15.6379 9.13756 15.5561C9.22063 15.4742 9.22063 15.3923 9.3037 15.3923C9.38678 15.3104 9.38678 15.3104 9.46985 15.2285C9.55293 15.1467 9.636 15.0648 9.636 15.0648C9.71908 14.9829 9.71908 14.9829 9.80215 14.901C9.88522 14.8191 9.9683 14.8191 9.9683 14.7372L10.0514 14.6554C10.1344 14.5735 10.2175 14.5735 10.2175 14.4916L10.3006 14.4097L10.3837 14.3278C10.4667 14.2459 10.5498 14.2459 10.6329 14.1641C10.2175 15.3923 10.0514 16.7024 10.0514 18.0125C10.0514 18.0944 10.0514 18.1763 10.0514 18.2582C10.0514 18.3401 10.0514 18.4219 10.0514 18.4219C10.0514 20.0596 10.3837 21.6972 10.9652 23.1711C10.9652 23.253 10.9652 23.3349 10.9652 23.3349L11.4636 24.3175C12.7097 26.9377 14.8697 29.1485 17.445 30.4586C19.3557 31.4412 21.3495 31.9325 23.4263 31.9325C23.5925 31.9325 23.8417 31.9325 24.0909 31.9325H24.174C24.3401 31.9325 24.5894 31.9325 24.8386 31.8506H24.9217C25.0878 31.8506 25.337 31.7687 25.5032 31.7687H25.5863C25.8355 31.7687 26.0016 31.6869 26.1678 31.6869H26.2508C26.5001 31.605 26.6662 31.605 26.8324 31.5231H26.9154C26.9985 31.2775 27.1647 31.1956 27.3308 31.1956Z" fill="#173641"/>
<path d="M35.3063 18.0951C35.3063 22.7624 32.731 27.0203 28.6604 29.0673C26.9989 29.8861 25.1713 30.3774 23.3436 30.3774C22.6791 30.3774 21.9314 30.2956 21.2668 30.2137C20.1037 30.0499 19.0238 29.6405 18.0269 29.0673C17.8607 28.9854 17.7777 28.9036 17.6115 28.8217C17.6115 28.8217 17.5284 28.8217 17.5284 28.7398H17.4454C17.3623 28.6579 17.2792 28.6579 17.1962 28.576L17.1131 28.4941L17.03 28.4123C16.9469 28.3304 16.8639 28.3304 16.7808 28.2485L16.6977 28.1666L16.6146 28.2485C16.5316 28.1666 16.4485 28.1666 16.4485 28.0847L16.3654 28.0029C16.2823 27.921 16.1993 27.921 16.1993 27.8391C16.1162 27.8391 16.1162 27.7572 16.0331 27.7572C15.95 27.6753 15.867 27.6753 15.867 27.5934C15.7839 27.5116 15.7839 27.5116 15.7008 27.4297C15.6177 27.3478 15.5347 27.3478 15.5347 27.2659C15.4516 27.184 15.4516 27.184 15.3685 27.1021C15.2854 27.0203 15.2854 27.0203 15.2024 26.9384C15.1193 26.8565 15.1193 26.8565 15.0362 26.7746C14.9531 26.6927 14.9531 26.6109 14.8701 26.6109C14.787 26.529 14.787 26.529 14.7039 26.4471C14.6208 26.3652 14.6208 26.2833 14.5378 26.2833C14.5378 26.2014 14.4547 26.2014 14.4547 26.1196C14.3716 26.0377 14.3716 25.9558 14.2886 25.9558V25.8739C14.2886 25.792 14.2055 25.792 14.2055 25.7102C14.1224 25.6283 14.1224 25.5464 14.0393 25.5464L13.707 25.3826C14.9531 25.792 16.1993 25.9558 17.4454 25.9558C17.5284 25.9558 17.6115 25.9558 17.6946 25.9558C17.7777 25.9558 17.8607 25.9558 17.8607 25.9558C19.4392 25.9558 21.0176 25.6283 22.5129 25.0551C22.5129 25.0551 22.5129 25.0551 22.596 25.0551C22.6791 25.0551 22.6791 25.0551 22.7621 25.0551L23.6759 24.5638C26.2512 23.2537 28.4112 21.0429 29.6573 18.4226C30.5711 16.5393 31.0696 14.4104 31.0696 12.2815C31.0696 12.0358 31.0696 11.8721 31.0696 11.6264V11.5445C31.0696 11.3808 31.0695 11.1351 30.9865 10.8895V10.8076C30.9865 10.5619 30.9034 10.3982 30.9034 10.1525V10.0706C30.9034 9.825 30.8203 9.66123 30.8203 9.41558V9.3337C30.7373 9.08806 30.7373 8.92429 30.6542 8.67865V8.59676C30.5711 8.433 30.5711 8.26923 30.488 8.10547C31.8172 9.16994 32.9803 10.4801 33.811 11.9539C34.8079 13.9191 35.3063 15.9662 35.3063 18.0951Z" fill="#173641"/>
<path d="M29.657 12.2823C29.657 14.2475 29.2416 16.0489 28.4109 17.7684C28.3278 17.9322 28.2447 18.0141 28.1617 18.1779C28.1617 18.1779 28.1617 18.2597 28.0786 18.2597V18.3416C27.9955 18.4235 27.9955 18.5054 27.9124 18.5873C27.9124 18.5873 27.9124 18.6692 27.8294 18.6692V18.8329C27.7463 18.9148 27.7463 18.9967 27.6632 19.0786L27.5801 19.1604V19.2423C27.4971 19.3242 27.4971 19.4061 27.414 19.488L27.3309 19.5699C27.2479 19.6517 27.2479 19.7336 27.1648 19.8155C27.1648 19.8974 27.0817 19.8974 27.0817 19.9793C26.9986 20.0612 26.9986 20.143 26.9156 20.2249C26.8325 20.3068 26.8325 20.3068 26.7494 20.3887C26.5833 20.3887 26.5833 20.4706 26.5002 20.5524C26.4171 20.6343 26.4171 20.6343 26.334 20.7162C26.251 20.7981 26.251 20.88 26.1679 20.88C26.0848 20.9619 26.0848 20.9619 26.0017 21.0437C25.9187 21.1256 25.8356 21.2075 25.8356 21.2075C25.7525 21.2894 25.7525 21.3713 25.6694 21.3713C25.5864 21.4531 25.5033 21.4531 25.5033 21.535L25.4202 21.6169C25.3371 21.6988 25.2541 21.6988 25.171 21.7807L25.0879 21.8626C25.0048 21.9444 24.9218 21.9444 24.8387 22.0263C25.2541 20.7981 25.4202 19.488 25.4202 18.1779C25.4202 18.096 25.4202 18.0141 25.4202 17.9322C25.4202 17.8503 25.4202 17.7684 25.4202 17.7684C25.4202 16.1308 25.0879 14.4932 24.5064 13.0193C24.5064 12.9374 24.5064 12.8555 24.5064 12.8555L24.008 11.8729C22.7618 9.25269 20.6019 7.04187 18.0266 5.73176C16.1159 4.91294 14.1221 4.42164 11.9622 4.42164C11.713 4.42164 11.5468 4.42164 11.2976 4.42164H11.2145C11.0484 4.42164 10.7991 4.42164 10.5499 4.50352H10.4668C10.3007 4.50352 10.0515 4.58541 9.88532 4.58541H9.80224C9.6361 4.58541 9.38687 4.66729 9.22072 4.66729H9.13765C8.88843 4.74917 8.72228 4.74917 8.55613 4.83105H8.47305C8.30691 4.91294 8.14076 4.99482 7.97461 5.0767C8.9715 3.6847 10.3007 2.45647 11.796 1.63765C13.5406 0.573176 15.6174 0 17.6943 0C22.2634 0 26.334 2.62023 28.4109 6.79623C29.2416 8.51575 29.657 10.3172 29.657 12.2823Z" fill="#173641"/>
<path d="M17.6956 20.8805C19.2556 20.8805 20.5201 19.6341 20.5201 18.0965C20.5201 16.5589 19.2556 15.3125 17.6956 15.3125C16.1357 15.3125 14.8711 16.5589 14.8711 18.0965C14.8711 19.6341 16.1357 20.8805 17.6956 20.8805Z" fill="#173641"/>
</svg>
