<svg width="65" height="52" viewBox="0 0 65 52" fill="none" xmlns="http://www.w3.org/2000/svg">
<path d="M54.9766 6C54.7464 6 54.5599 6.18717 54.5599 6.41667V8.08333H52.8932C52.6631 8.08333 52.4766 8.27051 52.4766 8.5C52.4766 8.72949 52.6631 8.91667 52.8932 8.91667H54.5599V10.5833C54.5599 10.8128 54.7464 11 54.9766 11C55.2067 11 55.3932 10.8128 55.3932 10.5833V8.91667H57.0599C57.29 8.91667 57.4766 8.72949 57.4766 8.5C57.4766 8.27051 57.29 8.08333 57.0599 8.08333H55.3932V6.41667C55.3932 6.18717 55.2067 6 54.9766 6Z" fill="#FFA26D"/>
<path d="M31.6157 0C31.2617 0 30.9747 0.287961 30.9747 0.641026V3.20513H28.4106C28.0565 3.20513 27.7695 3.49309 27.7695 3.84615C27.7695 4.19922 28.0565 4.48718 28.4106 4.48718H30.9747V7.05128C30.9747 7.40435 31.2617 7.69231 31.6157 7.69231C31.9697 7.69231 32.2567 7.40435 32.2567 7.05128V4.48718H34.8208C35.1748 4.48718 35.4618 4.19922 35.4618 3.84615C35.4618 3.49309 35.1748 3.20513 34.8208 3.20513H32.2567V0.641026C32.2567 0.287961 31.9697 0 31.6157 0Z" fill="#FFA26D"/>
<path d="M3.84615 42.3086C3.49213 42.3086 3.20513 42.5966 3.20513 42.9496V45.5137H0.641026C0.287002 45.5137 0 45.8017 0 46.1547C0 46.5078 0.287002 46.7958 0.641026 46.7958H3.20513V49.3599C3.20513 49.7129 3.49213 50.0009 3.84615 50.0009C4.20018 50.0009 4.48718 49.7129 4.48718 49.3599V46.7958H7.05128C7.4053 46.7958 7.69231 46.5078 7.69231 46.1547C7.69231 45.8017 7.4053 45.5137 7.05128 45.5137H4.48718V42.9496C4.48718 42.5966 4.20018 42.3086 3.84615 42.3086Z" fill="#FFA26D"/>
<path d="M61.104 33.332C60.7499 33.332 60.4629 33.62 60.4629 33.9731V36.5372H57.8988C57.5448 36.5372 57.2578 36.8251 57.2578 37.1782C57.2578 37.5312 57.5448 37.8192 57.8988 37.8192H60.4629V40.3833C60.4629 40.7364 60.7499 41.0243 61.104 41.0243C61.458 41.0243 61.745 40.7364 61.745 40.3833V37.8192H64.3091C64.6631 37.8192 64.9501 37.5312 64.9501 37.1782C64.9501 36.8251 64.6631 36.5372 64.3091 36.5372H61.745V33.9731C61.745 33.62 61.458 33.332 61.104 33.332Z" fill="#FFA26D"/>
<path d="M46.9989 35.2592C46.9989 43.4019 40.398 50.0028 32.2553 50.0028C24.1126 50.0028 17.5117 43.4019 17.5117 35.2592C17.5117 27.1166 24.1126 20.5156 32.2553 20.5156" stroke="#173641" stroke-width="2" stroke-linecap="round"/>
<path d="M32.2552 26.9258C27.6528 26.9258 23.9219 30.6567 23.9219 35.2591C23.9219 39.8615 27.6528 43.5924 32.2552 43.5924C32.6912 43.5924 33.1193 43.559 33.5373 43.4944" stroke="#173641" stroke-width="2" stroke-linecap="round"/>
<path d="M40.5898 35.2578C40.5898 36.6452 40.2508 37.9533 39.6511 39.104" stroke="#173641" stroke-width="2" stroke-linecap="round"/>
<path d="M34.1782 35.259C34.1782 36.3211 33.3172 37.1821 32.2551 37.1821C31.193 37.1821 30.332 36.3211 30.332 35.259C30.332 34.1969 31.193 33.3359 32.2551 33.3359C32.8646 33.3359 33.4078 33.6194 33.7601 34.0618C34.0218 34.3903 34.1782 34.8064 34.1782 35.259Z" fill="#FF862E"/>
<path d="M38.0234 17.1543C38.0234 16.8857 38.2412 16.668 38.5097 16.668H39.7476C46.584 16.668 52.126 22.21 52.126 29.0464V29.0464C52.126 29.2906 51.9281 29.4885 51.6839 29.4885H39.0234C38.4712 29.4885 38.0234 29.0408 38.0234 28.4885V17.1543Z" stroke="#FF862E" stroke-width="2" stroke-linecap="round"/>
</svg>
