<svg width="121" height="130" viewBox="0 0 121 130" fill="none" xmlns="http://www.w3.org/2000/svg">
<path d="M66.6667 0C66.2831 0 65.9722 0.311957 65.9722 0.694444V3.47222H63.1944C62.8109 3.47222 62.5 3.78418 62.5 4.16667C62.5 4.54915 62.8109 4.86111 63.1944 4.86111H65.9722V7.63889C65.9722 8.02138 66.2831 8.33333 66.6667 8.33333C67.0502 8.33333 67.3611 8.02138 67.3611 7.63889V4.86111H70.1389C70.5224 4.86111 70.8333 4.54915 70.8333 4.16667C70.8333 3.78418 70.5224 3.47222 70.1389 3.47222H67.3611V0.694444C67.3611 0.311957 67.0502 0 66.6667 0Z" fill="#49DAAD"/>
<path d="M4.16667 31.9453C3.78314 31.9453 3.47222 32.2573 3.47222 32.6398V35.4175H0.694444C0.310919 35.4175 0 35.7295 0 36.112C0 36.4945 0.310919 36.8064 0.694444 36.8064H3.47222V39.5842C3.47222 39.9667 3.78314 40.2786 4.16667 40.2786C4.55019 40.2786 4.86111 39.9667 4.86111 39.5842V36.8064H7.63889C8.02241 36.8064 8.33333 36.4945 8.33333 36.112C8.33333 35.7295 8.02241 35.4175 7.63889 35.4175H4.86111V32.6398C4.86111 32.2573 4.55019 31.9453 4.16667 31.9453Z" fill="#49DAAD"/>
<path d="M66.6667 41.668C66.2831 41.668 65.9722 41.9799 65.9722 42.3624V45.1402H63.1944C62.8109 45.1402 62.5 45.4521 62.5 45.8346C62.5 46.2171 62.8109 46.5291 63.1944 46.5291H65.9722V49.3069C65.9722 49.6893 66.2831 50.0013 66.6667 50.0013C67.0502 50.0013 67.3611 49.6893 67.3611 49.3069V46.5291H70.1389C70.5224 46.5291 70.8333 46.2171 70.8333 45.8346C70.8333 45.4521 70.5224 45.1402 70.1389 45.1402H67.3611V42.3624C67.3611 41.9799 67.0502 41.668 66.6667 41.668Z" fill="#49DAAD"/>
<path d="M55.5543 29.8611C55.5543 39.4494 47.7814 47.2222 38.1931 47.2222C31.3459 47.2222 25.4245 43.2583 22.5986 37.5L20.832 47.9167M20.832 29.8611C20.832 20.2728 28.6049 12.5 38.1931 12.5C44.7941 12.5 50.5346 16.1839 53.4709 21.608L54.8598 12.5" stroke="#FF862E" stroke-width="2" stroke-linecap="round" stroke-linejoin="round"/>
<rect x="43.4531" y="28.9648" width="3.57143" height="7.14286" rx="1.78571" fill="#19BF6F"/>
<rect x="36.3125" y="23.6094" width="3.57143" height="12.5" rx="1.78571" fill="#19BF6F"/>
<rect x="29.168" y="30.7539" width="3.57143" height="5.35714" rx="1.78571" fill="#19BF6F"/>
<path d="M4.576 119H0.352L8.8 95.608H12.992L21.44 119H17.12L15.232 113.592H6.496L4.576 119ZM10.368 102.584L7.68 110.136H14.048L11.36 102.584C11.2747 102.264 11.1787 101.944 11.072 101.624C10.9653 101.304 10.9013 101.027 10.88 100.792C10.8373 101.005 10.7627 101.283 10.656 101.624C10.5707 101.944 10.4747 102.264 10.368 102.584ZM27.7013 119H23.7973V103.192H27.4133L27.7333 105.24C28.2239 104.451 28.9173 103.832 29.8133 103.384C30.7306 102.936 31.7226 102.712 32.7893 102.712C34.7733 102.712 36.2666 103.299 37.2693 104.472C38.2933 105.645 38.8053 107.245 38.8053 109.272V119H34.9013V110.2C34.9013 108.877 34.6026 107.896 34.0053 107.256C33.4079 106.595 32.5973 106.264 31.5733 106.264C30.3573 106.264 29.4079 106.648 28.7253 107.416C28.0426 108.184 27.7013 109.208 27.7013 110.488V119ZM47.345 119.416C45.681 119.416 44.3583 118.968 43.377 118.072C42.417 117.155 41.937 115.96 41.937 114.488C41.937 113.037 42.4383 111.885 43.441 111.032C44.465 110.157 45.9157 109.645 47.793 109.496L52.529 109.112V108.76C52.529 108.035 52.3903 107.459 52.113 107.032C51.857 106.584 51.4837 106.264 50.993 106.072C50.5023 105.859 49.9263 105.752 49.265 105.752C48.113 105.752 47.2277 105.987 46.609 106.456C45.9903 106.904 45.681 107.544 45.681 108.376H42.353C42.353 107.224 42.641 106.232 43.217 105.4C43.8143 104.547 44.6463 103.885 45.713 103.416C46.801 102.947 48.049 102.712 49.457 102.712C50.8863 102.712 52.113 102.968 53.137 103.48C54.161 103.971 54.9503 104.717 55.505 105.72C56.0597 106.701 56.337 107.928 56.337 109.4V119H52.913L52.625 116.664C52.2837 117.475 51.6223 118.136 50.641 118.648C49.681 119.16 48.5823 119.416 47.345 119.416ZM48.593 116.472C49.809 116.472 50.769 116.131 51.473 115.448C52.1983 114.765 52.561 113.816 52.561 112.6V111.768L49.265 112.024C48.049 112.131 47.185 112.387 46.673 112.792C46.161 113.176 45.905 113.688 45.905 114.328C45.905 115.032 46.1397 115.565 46.609 115.928C47.0783 116.291 47.7397 116.472 48.593 116.472ZM64.1083 119H60.2363V95.192H64.1083V119ZM70.5395 103.192L75.6915 117.784L73.5795 121.784L66.4115 103.192H70.5395ZM66.8275 126.328V123.096H69.1635C69.6755 123.096 70.1235 123.032 70.5075 122.904C70.8915 122.797 71.2328 122.584 71.5315 122.264C71.8515 121.944 72.1182 121.475 72.3315 120.856L78.8915 103.192H82.9235L75.1795 122.52C74.6035 123.971 73.8782 125.027 73.0035 125.688C72.1288 126.349 71.0408 126.68 69.7395 126.68C69.1848 126.68 68.6622 126.648 68.1715 126.584C67.7022 126.541 67.2542 126.456 66.8275 126.328ZM83.6125 114.2H87.3245C87.3458 114.883 87.6018 115.427 88.0925 115.832C88.5832 116.237 89.2658 116.44 90.1405 116.44C91.0792 116.44 91.7832 116.269 92.2525 115.928C92.7432 115.587 92.9885 115.128 92.9885 114.552C92.9885 114.168 92.8605 113.827 92.6045 113.528C92.3485 113.229 91.8685 113.005 91.1645 112.856L88.3165 112.184C86.8872 111.864 85.8205 111.352 85.1165 110.648C84.4338 109.923 84.0925 108.931 84.0925 107.672C84.0925 106.648 84.3592 105.763 84.8925 105.016C85.4472 104.269 86.1938 103.704 87.1325 103.32C88.0712 102.915 89.1485 102.712 90.3645 102.712C91.5378 102.712 92.5725 102.925 93.4685 103.352C94.3645 103.779 95.0578 104.376 95.5485 105.144C96.0605 105.912 96.3272 106.808 96.3485 107.832H92.6365C92.6365 107.149 92.4232 106.616 91.9965 106.232C91.5698 105.827 90.9725 105.624 90.2045 105.624C89.4365 105.624 88.8392 105.795 88.4125 106.136C87.9858 106.477 87.7725 106.936 87.7725 107.512C87.7725 108.387 88.4552 108.984 89.8205 109.304L92.6685 109.976C93.9912 110.275 94.9832 110.755 95.6445 111.416C96.3272 112.077 96.6685 113.016 96.6685 114.232C96.6685 115.299 96.3912 116.227 95.8365 117.016C95.2818 117.784 94.5032 118.381 93.5005 118.808C92.4978 119.213 91.3458 119.416 90.0445 119.416C88.0818 119.416 86.5138 118.936 85.3405 117.976C84.1885 117.016 83.6125 115.757 83.6125 114.2ZM99.641 119V103.192H103.545V119H99.641ZM101.561 100.024C100.9 100.024 100.334 99.8 99.865 99.352C99.417 98.8827 99.193 98.3173 99.193 97.656C99.193 96.9947 99.417 96.44 99.865 95.992C100.334 95.544 100.9 95.32 101.561 95.32C102.222 95.32 102.777 95.544 103.225 95.992C103.694 96.44 103.929 96.9947 103.929 97.656C103.929 98.3173 103.694 98.8827 103.225 99.352C102.777 99.8 102.222 100.024 101.561 100.024ZM106.363 114.2H110.075C110.096 114.883 110.352 115.427 110.843 115.832C111.333 116.237 112.016 116.44 112.891 116.44C113.829 116.44 114.533 116.269 115.003 115.928C115.493 115.587 115.739 115.128 115.739 114.552C115.739 114.168 115.611 113.827 115.355 113.528C115.099 113.229 114.619 113.005 113.915 112.856L111.067 112.184C109.637 111.864 108.571 111.352 107.867 110.648C107.184 109.923 106.843 108.931 106.843 107.672C106.843 106.648 107.109 105.763 107.643 105.016C108.197 104.269 108.944 103.704 109.883 103.32C110.821 102.915 111.899 102.712 113.115 102.712C114.288 102.712 115.323 102.925 116.219 103.352C117.115 103.779 117.808 104.376 118.299 105.144C118.811 105.912 119.077 106.808 119.099 107.832H115.387C115.387 107.149 115.173 106.616 114.747 106.232C114.32 105.827 113.723 105.624 112.955 105.624C112.187 105.624 111.589 105.795 111.163 106.136C110.736 106.477 110.523 106.936 110.523 107.512C110.523 108.387 111.205 108.984 112.571 109.304L115.419 109.976C116.741 110.275 117.733 110.755 118.395 111.416C119.077 112.077 119.419 113.016 119.419 114.232C119.419 115.299 119.141 116.227 118.587 117.016C118.032 117.784 117.253 118.381 116.251 118.808C115.248 119.213 114.096 119.416 112.795 119.416C110.832 119.416 109.264 118.936 108.091 117.976C106.939 117.016 106.363 115.757 106.363 114.2Z" fill="#173641"/>
</svg>
