<svg width="65" height="50" viewBox="0 0 65 50" fill="none" xmlns="http://www.w3.org/2000/svg">
<path d="M57.104 2.5625C56.7499 2.5625 56.4629 2.85046 56.4629 3.20353V5.76763H53.8988C53.5448 5.76763 53.2578 6.05559 53.2578 6.40865C53.2578 6.76172 53.5448 7.04968 53.8988 7.04968H56.4629V9.61378C56.4629 9.96685 56.7499 10.2548 57.104 10.2548C57.458 10.2548 57.745 9.96685 57.745 9.61378V7.04968H60.3091C60.6631 7.04968 60.9501 6.76172 60.9501 6.40865C60.9501 6.05559 60.6631 5.76763 60.3091 5.76763H57.745V3.20353C57.745 2.85046 57.458 2.5625 57.104 2.5625Z" fill="#FFA26D"/>
<path d="M27.6157 0C27.2617 0 26.9747 0.287961 26.9747 0.641026V3.20513H24.4106C24.0565 3.20513 23.7695 3.49309 23.7695 3.84615C23.7695 4.19922 24.0565 4.48718 24.4106 4.48718H26.9747V7.05128C26.9747 7.40435 27.2617 7.69231 27.6157 7.69231C27.9697 7.69231 28.2567 7.40435 28.2567 7.05128V4.48718H30.8208C31.1748 4.48718 31.4618 4.19922 31.4618 3.84615C31.4618 3.49309 31.1748 3.20513 30.8208 3.20513H28.2567V0.641026C28.2567 0.287961 27.9697 0 27.6157 0Z" fill="#FFA26D"/>
<path d="M3.84615 42.3086C3.49213 42.3086 3.20513 42.5966 3.20513 42.9496V45.5137H0.641026C0.287002 45.5137 0 45.8017 0 46.1547C0 46.5078 0.287002 46.7958 0.641026 46.7958H3.20513V49.3599C3.20513 49.7129 3.49213 50.0009 3.84615 50.0009C4.20018 50.0009 4.48718 49.7129 4.48718 49.3599V46.7958H7.05128C7.40531 46.7958 7.69231 46.5078 7.69231 46.1547C7.69231 45.8017 7.40531 45.5137 7.05128 45.5137H4.48718V42.9496C4.48718 42.5966 4.20018 42.3086 3.84615 42.3086Z" fill="#FFA26D"/>
<path d="M60.9477 33.332C60.5937 33.332 60.3067 33.62 60.3067 33.9731V36.5372H57.7426C57.3886 36.5372 57.1016 36.8251 57.1016 37.1782C57.1016 37.5313 57.3886 37.8192 57.7426 37.8192H60.3067V40.3833C60.3067 40.7364 60.5937 41.0243 60.9477 41.0243C61.3017 41.0243 61.5887 40.7364 61.5887 40.3833V37.8192H64.1528C64.5069 37.8192 64.7939 37.5313 64.7939 37.1782C64.7939 36.8251 64.5069 36.5372 64.1528 36.5372H61.5887V33.9731C61.5887 33.62 61.3017 33.332 60.9477 33.332Z" fill="#FFA26D"/>
<path d="M50.3927 30.4711H48.7629V28.8413C48.7629 27.9689 48.0557 27.2617 47.1834 27.2617C46.311 27.2617 45.6038 27.9689 45.6038 28.8413V30.4711H43.9741C43.1017 30.4711 42.3945 31.1783 42.3945 32.0506C42.3945 32.923 43.1017 33.6302 43.9741 33.6302H45.6039V35.26C45.6039 36.1323 46.3111 36.8395 47.1834 36.8395C48.0558 36.8395 48.763 36.1323 48.763 35.26V33.6302H50.3928C51.2652 33.6302 51.9724 32.923 51.9724 32.0506C51.9724 31.1783 51.2651 30.4711 50.3927 30.4711Z" fill="#173641"/>
<path d="M39.1611 17.5849C42.7142 17.5849 45.6048 20.4756 45.6048 24.0287C45.6048 24.901 46.312 25.6082 47.1844 25.6082C48.0568 25.6082 48.764 24.901 48.764 24.0287C48.764 18.7336 44.4562 14.4258 39.1611 14.4258C33.8661 14.4258 29.5582 18.7336 29.5582 24.0287V30.4724H27.9285C27.0561 30.4724 26.3489 31.1796 26.3489 32.052C26.3489 32.9243 27.0561 33.6315 27.9285 33.6315H29.5582V40.0753C29.5582 43.6283 26.6676 46.519 23.1145 46.519C19.5614 46.519 16.6709 43.6283 16.6709 40.0752C16.6709 36.5221 19.5615 33.6315 23.1146 33.6315C23.987 33.6315 24.6942 32.9243 24.6942 32.0519C24.6942 31.1795 23.987 30.4723 23.1146 30.4723C17.8195 30.4724 13.5117 34.7802 13.5117 40.0752C13.5117 45.3702 17.8195 49.6781 23.1146 49.6781C28.4097 49.6781 32.7175 45.3702 32.7175 40.0752V33.6315H34.3472C35.2195 33.6315 35.9267 32.9243 35.9267 32.0519C35.9267 31.1795 35.2195 30.4723 34.3472 30.4723H32.7174V24.0287C32.7174 20.4756 35.608 17.5849 39.1611 17.5849Z" fill="#37BB92"/>
</svg>
