<svg width="131" height="31" viewBox="0 0 131 31" fill="none" xmlns="http://www.w3.org/2000/svg">
<path d="M17.549 9.21011C16.5365 8.87074 15.5241 8.735 14.5116 8.735C14.4441 8.735 14.3767 8.735 14.3767 8.735C14.3092 8.735 14.2417 8.735 14.2417 8.735C12.9592 8.735 11.6768 9.00649 10.4619 9.48161C10.4619 9.48161 10.4619 9.48161 10.3944 9.48161C10.3269 9.48161 10.3269 9.48161 10.2594 9.48161L9.51694 9.88885C7.42456 10.9748 5.66967 12.8074 4.65723 14.9794C3.91477 16.5405 3.50979 18.3052 3.50979 20.0699C3.50979 20.2735 3.50979 20.4092 3.50979 20.6129V20.6807C3.50979 20.8844 3.50979 21.0201 3.57729 21.2237V21.2916C3.57729 21.4273 3.64479 21.631 3.64479 21.8346V21.9025C3.64479 22.1061 3.71228 22.2418 3.71228 22.4454V22.5133C3.77978 22.7169 3.77978 22.8527 3.84727 23.0563V23.1242C3.91477 23.2599 3.91477 23.3957 3.98227 23.5314C2.90233 22.6491 1.95738 21.5631 1.28242 20.3414C0.404976 18.6445 0 16.9477 0 15.183C0 11.3142 2.09238 7.78477 5.39968 6.08793C6.7496 5.40919 8.23451 5.00195 9.71943 5.00195C11.2718 5.00195 12.6893 5.34132 14.1067 6.08793C14.1742 6.1558 14.3092 6.22368 14.4441 6.29155C14.4441 6.29155 14.5116 6.29155 14.5116 6.35942H14.5791C14.6466 6.4273 14.7141 6.4273 14.7816 6.49517C14.7816 6.49517 14.8491 6.49517 14.8491 6.56304C14.9166 6.63092 14.9841 6.63092 15.0516 6.69879L15.1191 6.76666L15.1866 6.83454C15.2541 6.90241 15.3216 6.90241 15.3891 6.97029L15.5241 7.03816C15.5916 7.10603 15.6591 7.10603 15.7266 7.17391C15.7941 7.17391 15.7941 7.24178 15.8616 7.24178C15.9291 7.30965 15.9966 7.30965 15.9966 7.37753C16.0641 7.4454 16.0641 7.4454 16.1315 7.51327C16.199 7.58115 16.2665 7.58115 16.2665 7.64902C16.334 7.71689 16.334 7.71689 16.4015 7.78477C16.469 7.85264 16.469 7.85264 16.5365 7.92051C16.604 7.98839 16.604 7.98839 16.6715 8.05626C16.739 8.12414 16.739 8.19201 16.8065 8.19201C16.874 8.25988 16.874 8.32776 16.9415 8.32776C17.009 8.39563 17.009 8.4635 17.0765 8.4635L17.144 8.53138C17.2115 8.59925 17.2115 8.66712 17.279 8.735L17.3465 8.80287C17.4815 9.00649 17.4815 9.07436 17.549 9.21011Z" fill="#A0E1DA"/>
<path d="M22.2024 26.0435C21.3924 27.1973 20.3125 28.2154 19.0976 28.8942C17.6127 29.7765 15.9928 30.1838 14.3054 30.1838C10.5931 30.1838 7.28578 28.0118 5.59838 24.5503C4.92342 23.1249 4.58594 21.6317 4.58594 20.0027C4.58594 18.3738 4.92342 16.8805 5.59838 15.4552C5.66587 15.3195 5.73337 15.2516 5.80086 15.1158C5.80086 15.1158 5.80086 15.048 5.86836 15.048V14.9801C5.93586 14.9122 5.93586 14.8443 6.00335 14.7765C6.00335 14.7765 6.00335 14.7086 6.07085 14.7086L6.13834 14.6407C6.20584 14.5728 6.20584 14.505 6.27334 14.4371L6.34083 14.3692L6.40833 14.3014C6.47582 14.2335 6.47582 14.1656 6.54332 14.0977L6.61082 14.0299C6.67831 13.962 6.67831 13.8941 6.74581 13.8262C6.74581 13.7584 6.8133 13.7584 6.8808 13.6905C6.9483 13.6226 6.9483 13.5547 7.01579 13.4869C7.08329 13.419 7.08329 13.419 7.15078 13.3511C7.21828 13.2833 7.21828 13.2154 7.28578 13.2154C7.35327 13.1475 7.35327 13.1475 7.42077 13.0796C7.48826 13.0118 7.48826 12.9439 7.55576 12.9439C7.62325 12.876 7.62325 12.876 7.69075 12.8081C7.75825 12.7403 7.82574 12.6724 7.82574 12.6724C7.89324 12.6045 7.89324 12.6045 7.96073 12.5366C8.02823 12.4688 8.09573 12.4688 8.09573 12.4009L8.16322 12.333C8.23072 12.2651 8.29821 12.2651 8.29821 12.1973L8.36571 12.1294L8.43321 12.0615C8.5007 11.9937 8.5682 11.9937 8.63569 11.9258C8.29821 12.9439 8.16322 14.0299 8.16322 15.1158C8.16322 15.1837 8.16322 15.2516 8.16322 15.3195C8.16322 15.3873 8.16322 15.4552 8.16322 15.4552C8.16322 16.8127 8.43321 18.1701 8.90568 19.3919C8.90568 19.4597 8.90568 19.5276 8.90568 19.5276L9.31065 20.3421C10.3231 22.5141 12.078 24.3466 14.1704 25.4326C15.7228 26.2471 17.3427 26.6543 19.0301 26.6543C19.1651 26.6543 19.3675 26.6543 19.57 26.6543H19.6375C19.7725 26.6543 19.975 26.6543 20.1775 26.5865H20.245C20.38 26.5865 20.5825 26.5186 20.7175 26.5186H20.785C20.9875 26.5186 21.1224 26.4507 21.2574 26.4507H21.3249C21.5274 26.3828 21.6624 26.3828 21.7974 26.315H21.8649C21.9324 26.1114 22.0674 26.0435 22.2024 26.0435Z" fill="#A0E1DA"/>
<path d="M28.6896 15.1829C28.6896 19.0517 26.5972 22.5811 23.2899 24.278C21.94 24.9567 20.4551 25.3639 18.9702 25.3639C18.4302 25.3639 17.8227 25.2961 17.2828 25.2282C16.3378 25.0925 15.4604 24.7531 14.6504 24.278C14.5154 24.2101 14.4479 24.1422 14.3129 24.0744C14.3129 24.0744 14.2454 24.0744 14.2454 24.0065H14.1779C14.1104 23.9386 14.043 23.9386 13.9755 23.8707L13.908 23.8029L13.8405 23.735C13.773 23.6671 13.7055 23.6671 13.638 23.5992L13.5705 23.5314L13.503 23.5992C13.4355 23.5314 13.368 23.5314 13.368 23.4635L13.3005 23.3956C13.233 23.3277 13.1655 23.3277 13.1655 23.2599C13.098 23.2599 13.098 23.192 13.0305 23.192C12.963 23.1241 12.8955 23.1241 12.8955 23.0562C12.828 22.9884 12.828 22.9884 12.7605 22.9205C12.693 22.8526 12.6255 22.8526 12.6255 22.7848C12.558 22.7169 12.558 22.7169 12.4905 22.649C12.423 22.5811 12.423 22.5811 12.3556 22.5133C12.2881 22.4454 12.2881 22.4454 12.2206 22.3775C12.1531 22.3096 12.1531 22.2418 12.0856 22.2418C12.0181 22.1739 12.0181 22.1739 11.9506 22.106C11.8831 22.0381 11.8831 21.9703 11.8156 21.9703C11.8156 21.9024 11.7481 21.9024 11.7481 21.8345C11.6806 21.7667 11.6806 21.6988 11.6131 21.6988V21.6309C11.6131 21.563 11.5456 21.563 11.5456 21.4952C11.4781 21.4273 11.4781 21.3594 11.4106 21.3594L11.1406 21.2237C12.1531 21.563 13.1655 21.6988 14.1779 21.6988C14.2454 21.6988 14.3129 21.6988 14.3804 21.6988C14.4479 21.6988 14.5154 21.6988 14.5154 21.6988C15.7978 21.6988 17.0803 21.4273 18.2952 20.9522C18.2952 20.9522 18.2952 20.9522 18.3627 20.9522C18.4302 20.9522 18.4302 20.9522 18.4977 20.9522L19.2401 20.5449C21.3325 19.4589 23.0874 17.6264 24.0999 15.4544C24.8423 13.8933 25.2473 12.1286 25.2473 10.3639C25.2473 10.1603 25.2473 10.0245 25.2473 9.82091V9.75303C25.2473 9.61729 25.2473 9.41367 25.1798 9.21004V9.14217C25.1798 8.93855 25.1123 8.8028 25.1123 8.59918V8.53131C25.1123 8.32769 25.0448 8.19194 25.0448 7.98832V7.92045C24.9773 7.71683 24.9773 7.58108 24.9098 7.37746V7.30959C24.8423 7.17384 24.8423 7.03809 24.7748 6.90234C25.8547 7.7847 26.7997 8.87068 27.4747 10.0924C28.2846 11.7214 28.6896 13.4182 28.6896 15.1829Z" fill="#A0E1DA"/>
<path d="M24.1047 10.3646C24.1047 11.9936 23.7673 13.4868 23.0923 14.9121C23.0248 15.0479 22.9573 15.1158 22.8898 15.2515C22.8898 15.2515 22.8898 15.3194 22.8223 15.3194V15.3873C22.7548 15.4551 22.7548 15.523 22.6873 15.5909C22.6873 15.5909 22.6873 15.6588 22.6198 15.6588V15.7945C22.5523 15.8624 22.5523 15.9303 22.4848 15.9981L22.4173 16.066V16.1339C22.3498 16.2017 22.3498 16.2696 22.2823 16.3375L22.2148 16.4054C22.1474 16.4732 22.1474 16.5411 22.0799 16.609C22.0799 16.6769 22.0124 16.6769 22.0124 16.7447C21.9449 16.8126 21.9449 16.8805 21.8774 16.9484C21.8099 17.0162 21.8099 17.0162 21.7424 17.0841C21.6074 17.0841 21.6074 17.152 21.5399 17.2198C21.4724 17.2877 21.4724 17.2877 21.4049 17.3556C21.3374 17.4235 21.3374 17.4913 21.2699 17.4913C21.2024 17.5592 21.2024 17.5592 21.1349 17.6271C21.0674 17.695 20.9999 17.7628 20.9999 17.7628C20.9324 17.8307 20.9324 17.8986 20.8649 17.8986C20.7974 17.9665 20.7299 17.9665 20.7299 18.0343L20.6624 18.1022C20.5949 18.1701 20.5274 18.1701 20.46 18.2379L20.3925 18.3058C20.325 18.3737 20.2575 18.3737 20.19 18.4416C20.5274 17.4235 20.6624 16.3375 20.6624 15.2515C20.6624 15.1836 20.6624 15.1158 20.6624 15.0479C20.6624 14.98 20.6624 14.9121 20.6624 14.9121C20.6624 13.5547 20.3925 12.1972 19.92 10.9755C19.92 10.9076 19.92 10.8397 19.92 10.8397L19.515 10.0253C18.5026 7.8533 16.7477 6.02072 14.6553 4.93474C13.1029 4.256 11.483 3.84876 9.72809 3.84876C9.5256 3.84876 9.39061 3.84876 9.18812 3.84876H9.12062C8.98563 3.84876 8.78314 3.84876 8.58066 3.91664H8.51316C8.37817 3.91664 8.17568 3.98451 8.04069 3.98451H7.97319C7.8382 3.98451 7.63571 4.05238 7.50072 4.05238H7.43322C7.23074 4.12026 7.09575 4.12026 6.96075 4.18813H6.89326C6.75826 4.256 6.62327 4.32388 6.48828 4.39175C7.29823 3.2379 8.37817 2.2198 9.5931 1.54106C11.0105 0.658708 12.6979 0.183594 14.3853 0.183594C18.0976 0.183594 21.4049 2.35555 23.0923 5.8171C23.7673 7.24244 24.1047 8.73566 24.1047 10.3646Z" fill="#A0E1DA"/>
<path d="M14.3808 17.4904C15.6482 17.4904 16.6757 16.4572 16.6757 15.1827C16.6757 13.9082 15.6482 12.875 14.3808 12.875C13.1134 12.875 12.0859 13.9082 12.0859 15.1827C12.0859 16.4572 13.1134 17.4904 14.3808 17.4904Z" fill="#A0E1DA"/>
<path d="M43.0635 9.41359H46.3033V20.1376C46.3033 21.9023 45.6958 23.2598 44.5484 24.1421C43.401 25.0924 41.9836 25.4996 40.3637 25.4996C37.7988 25.4996 36.044 24.6173 35.0315 22.7847L37.9338 21.0878C38.4738 22.0381 39.2837 22.5132 40.4987 22.5132C42.1186 22.5132 43.0635 21.6308 43.0635 20.0697V19.0516C42.2536 20.0697 41.1736 20.5448 39.7562 20.5448C38.2038 20.5448 36.8539 20.0019 35.8415 18.848C34.7615 17.6942 34.2891 16.3367 34.2891 14.7756C34.2891 13.2145 34.829 11.857 35.8415 10.7711C36.9214 9.61721 38.2038 9.07422 39.7562 9.07422C41.1736 9.07422 42.2536 9.54933 42.996 10.5674V9.41359H43.0635ZM40.2962 17.4227C41.1061 17.4227 41.7136 17.1512 42.2536 16.6761C42.7935 16.2009 42.996 15.5901 42.996 14.7756C42.996 13.9611 42.726 13.3503 42.2536 12.8751C41.7811 12.4 41.1061 12.1285 40.2962 12.1285C39.4862 12.1285 38.8788 12.4 38.3388 12.8751C37.7988 13.3503 37.5964 13.9611 37.5964 14.7756C37.5964 15.5901 37.8663 16.2009 38.3388 16.6761C38.8113 17.1512 39.5537 17.4227 40.2962 17.4227Z" fill="#A0E1DA"/>
<path d="M52.1092 11.3824C52.5141 9.95706 53.9316 9.14258 55.484 9.14258V12.9435C54.674 12.8077 53.8641 12.9435 53.1891 13.3507C52.5142 13.758 52.1092 14.5046 52.1092 15.5227V20.6132H48.7344V9.41407H52.1092V11.3824Z" fill="#A0E1DA"/>
<path d="M62.0959 21.0204C60.4085 21.0204 59.0586 20.4775 57.9111 19.3236C56.7637 18.1698 56.1562 16.7444 56.1562 15.1154C56.1562 13.4865 56.7637 12.0611 57.9111 10.9073C59.0586 9.75344 60.476 9.14258 62.0959 9.14258C63.7158 9.14258 65.1332 9.75344 66.2806 10.9073C67.428 12.0611 68.0355 13.4865 68.0355 15.1154C68.0355 16.7444 67.428 18.1698 66.2806 19.3236C65.1332 20.4775 63.7833 21.0204 62.0959 21.0204ZM62.0959 17.6946C62.8383 17.6946 63.4458 17.4231 63.9183 16.948C64.3907 16.4729 64.6607 15.7942 64.6607 15.0476C64.6607 14.301 64.3907 13.6222 63.9183 13.1471C63.4458 12.672 62.8383 12.4005 62.0959 12.4005C61.3534 12.4005 60.746 12.672 60.2735 13.1471C59.801 13.6222 59.531 14.301 59.531 15.0476C59.531 15.7942 59.801 16.4729 60.2735 16.948C60.746 17.4231 61.3534 17.6946 62.0959 17.6946Z" fill="#A0E1DA"/>
<path d="M81.8067 9.41406H85.3839L81.8067 20.6811H78.7018L76.8795 14.6403L75.0571 20.6811H71.9523L68.375 9.41406H71.9523L73.5722 15.4548L75.3271 9.41406H78.4319L80.1868 15.4548L81.8067 9.41406Z" fill="#A0E1DA"/>
<path d="M93.3475 12.6726H91.0526V16.6771C91.0526 17.5595 91.7276 17.7631 93.3475 17.6274V20.6817C91.1876 20.8853 89.7702 20.6817 88.8928 20.0708C88.0828 19.3921 87.6778 18.3061 87.6778 16.6771V12.6726H85.8555V9.41467H87.6778V7.24271L91.0526 6.22461V9.34679H93.3475V12.6726Z" fill="#A0E1DA"/>
<path d="M104.756 10.2971C105.566 11.1116 105.971 12.2654 105.971 13.6907V20.6138H102.596V14.1659C102.596 12.8084 101.786 12.1297 100.639 12.1297C99.3566 12.1297 98.5467 12.9441 98.5467 14.4374V20.6138H95.1719V4.86719H98.5467V10.4328C99.2216 9.48259 100.302 9.07535 101.719 9.07535C103.001 9.07535 104.014 9.48259 104.756 10.2971Z" fill="#A0E1DA"/>
<path d="M115.552 9.41406H118.927V20.6811H115.552V19.5951C114.877 20.5453 113.797 20.9526 112.38 20.9526C111.165 20.9526 110.153 20.5453 109.41 19.7308C108.6 18.9164 108.195 17.7625 108.195 16.3372V9.41406H111.57V15.7942C111.57 17.1516 112.38 17.8304 113.527 17.8304C114.81 17.8304 115.62 17.0159 115.62 15.5227V9.41406H115.552Z" fill="#A0E1DA"/>
<path d="M126.427 13.6901C127.979 14.0295 130.004 14.844 130.004 17.2874C130.004 18.5091 129.532 19.4594 128.654 20.0702C127.777 20.6811 126.629 21.0204 125.347 21.0204C122.985 21.0204 121.365 20.1381 120.555 18.3055L123.457 16.6087C123.727 17.491 124.402 17.9661 125.347 17.9661C126.157 17.9661 126.562 17.7625 126.562 17.2874C126.562 16.8123 125.684 16.5408 124.604 16.2693C123.052 15.8621 121.027 15.0476 121.027 12.8077C121.027 11.6539 121.432 10.7037 122.31 10.0928C123.187 9.41407 124.199 9.14258 125.414 9.14258C127.304 9.14258 128.857 10.0249 129.802 11.586L126.899 13.0792C126.562 12.4005 126.022 12.0611 125.414 12.0611C124.807 12.0611 124.469 12.2648 124.469 12.672C124.469 13.1471 125.347 13.4186 126.427 13.6901Z" fill="#A0E1DA"/>
</svg>
